<mxfile host="app.diagrams.net" agent="Mozilla/5.0 (Macintosh; Intel Mac OS X 10_15_7) AppleWebKit/537.36 (KHTML, like Gecko) Chrome/136.0.0.0 Safari/537.36" version="27.1.1">
  <diagram id="C5RBs43oDa-KdzZeNtuy" name="Page-1">
    <mxGraphModel dx="2029" dy="683" grid="1" gridSize="10" guides="1" tooltips="1" connect="1" arrows="1" fold="1" page="1" pageScale="1" pageWidth="827" pageHeight="1169" math="0" shadow="0">
      <root>
        <mxCell id="WIyWlLk6GJQsqaUBKTNV-0" />
        <mxCell id="WIyWlLk6GJQsqaUBKTNV-1" parent="WIyWlLk6GJQsqaUBKTNV-0" />
        <mxCell id="NYca2bg5dkr7Hp-z3PVs-1" value="" style="edgeStyle=orthogonalEdgeStyle;rounded=0;orthogonalLoop=1;jettySize=auto;html=1;" edge="1" parent="WIyWlLk6GJQsqaUBKTNV-1" source="WIyWlLk6GJQsqaUBKTNV-3" target="NYca2bg5dkr7Hp-z3PVs-0">
          <mxGeometry relative="1" as="geometry" />
        </mxCell>
        <mxCell id="WIyWlLk6GJQsqaUBKTNV-3" value="관리자 :&lt;div&gt;유급 처리&lt;/div&gt;" style="rounded=1;whiteSpace=wrap;html=1;fontSize=12;glass=0;strokeWidth=1;shadow=0;" parent="WIyWlLk6GJQsqaUBKTNV-1" vertex="1">
          <mxGeometry x="360" y="80" width="120" height="40" as="geometry" />
        </mxCell>
        <mxCell id="NYca2bg5dkr7Hp-z3PVs-3" value="" style="edgeStyle=orthogonalEdgeStyle;rounded=0;orthogonalLoop=1;jettySize=auto;html=1;" edge="1" parent="WIyWlLk6GJQsqaUBKTNV-1" source="NYca2bg5dkr7Hp-z3PVs-0" target="NYca2bg5dkr7Hp-z3PVs-2">
          <mxGeometry relative="1" as="geometry" />
        </mxCell>
        <mxCell id="NYca2bg5dkr7Hp-z3PVs-0" value="승무원 근무 유급 처리" style="rounded=1;whiteSpace=wrap;html=1;fontSize=12;glass=0;strokeWidth=1;shadow=0;" vertex="1" parent="WIyWlLk6GJQsqaUBKTNV-1">
          <mxGeometry x="360" y="160" width="120" height="40" as="geometry" />
        </mxCell>
        <mxCell id="NYca2bg5dkr7Hp-z3PVs-5" value="" style="edgeStyle=orthogonalEdgeStyle;rounded=0;orthogonalLoop=1;jettySize=auto;html=1;" edge="1" parent="WIyWlLk6GJQsqaUBKTNV-1" source="NYca2bg5dkr7Hp-z3PVs-2" target="NYca2bg5dkr7Hp-z3PVs-4">
          <mxGeometry relative="1" as="geometry" />
        </mxCell>
        <mxCell id="NYca2bg5dkr7Hp-z3PVs-7" value="" style="edgeStyle=orthogonalEdgeStyle;rounded=0;orthogonalLoop=1;jettySize=auto;html=1;" edge="1" parent="WIyWlLk6GJQsqaUBKTNV-1" source="NYca2bg5dkr7Hp-z3PVs-2" target="NYca2bg5dkr7Hp-z3PVs-6">
          <mxGeometry relative="1" as="geometry" />
        </mxCell>
        <mxCell id="NYca2bg5dkr7Hp-z3PVs-2" value="승무원 :&amp;nbsp;&lt;div&gt;신청서 작성&lt;/div&gt;" style="rhombus;whiteSpace=wrap;html=1;rounded=1;glass=0;strokeWidth=1;shadow=0;" vertex="1" parent="WIyWlLk6GJQsqaUBKTNV-1">
          <mxGeometry x="380" y="240" width="80" height="80" as="geometry" />
        </mxCell>
        <mxCell id="NYca2bg5dkr7Hp-z3PVs-9" value="" style="edgeStyle=orthogonalEdgeStyle;rounded=0;orthogonalLoop=1;jettySize=auto;html=1;" edge="1" parent="WIyWlLk6GJQsqaUBKTNV-1" source="NYca2bg5dkr7Hp-z3PVs-4" target="NYca2bg5dkr7Hp-z3PVs-8">
          <mxGeometry relative="1" as="geometry" />
        </mxCell>
        <mxCell id="NYca2bg5dkr7Hp-z3PVs-4" value="승무원 앱 작성 완료" style="whiteSpace=wrap;html=1;rounded=1;glass=0;strokeWidth=1;shadow=0;" vertex="1" parent="WIyWlLk6GJQsqaUBKTNV-1">
          <mxGeometry x="180" y="330" width="120" height="60" as="geometry" />
        </mxCell>
        <mxCell id="NYca2bg5dkr7Hp-z3PVs-6" value="승무원 앱 내에서&amp;nbsp;&lt;br&gt;유급 사유서 작성 필요" style="whiteSpace=wrap;html=1;rounded=1;glass=0;strokeWidth=1;shadow=0;" vertex="1" parent="WIyWlLk6GJQsqaUBKTNV-1">
          <mxGeometry x="500" y="330" width="120" height="60" as="geometry" />
        </mxCell>
        <mxCell id="NYca2bg5dkr7Hp-z3PVs-11" value="" style="edgeStyle=orthogonalEdgeStyle;rounded=0;orthogonalLoop=1;jettySize=auto;html=1;" edge="1" parent="WIyWlLk6GJQsqaUBKTNV-1" source="NYca2bg5dkr7Hp-z3PVs-8" target="NYca2bg5dkr7Hp-z3PVs-10">
          <mxGeometry relative="1" as="geometry" />
        </mxCell>
        <mxCell id="NYca2bg5dkr7Hp-z3PVs-12" style="edgeStyle=orthogonalEdgeStyle;rounded=0;orthogonalLoop=1;jettySize=auto;html=1;" edge="1" parent="WIyWlLk6GJQsqaUBKTNV-1" source="NYca2bg5dkr7Hp-z3PVs-8" target="NYca2bg5dkr7Hp-z3PVs-2">
          <mxGeometry relative="1" as="geometry" />
        </mxCell>
        <mxCell id="NYca2bg5dkr7Hp-z3PVs-8" value="관리자 :&lt;br&gt;확인?" style="rhombus;whiteSpace=wrap;html=1;rounded=1;glass=0;strokeWidth=1;shadow=0;" vertex="1" parent="WIyWlLk6GJQsqaUBKTNV-1">
          <mxGeometry x="200" y="460" width="80" height="80" as="geometry" />
        </mxCell>
        <mxCell id="NYca2bg5dkr7Hp-z3PVs-13" style="edgeStyle=orthogonalEdgeStyle;rounded=0;orthogonalLoop=1;jettySize=auto;html=1;" edge="1" parent="WIyWlLk6GJQsqaUBKTNV-1" source="NYca2bg5dkr7Hp-z3PVs-10" target="NYca2bg5dkr7Hp-z3PVs-2">
          <mxGeometry relative="1" as="geometry">
            <Array as="points">
              <mxPoint x="440" y="590" />
            </Array>
          </mxGeometry>
        </mxCell>
        <mxCell id="NYca2bg5dkr7Hp-z3PVs-15" value="" style="edgeStyle=orthogonalEdgeStyle;rounded=0;orthogonalLoop=1;jettySize=auto;html=1;" edge="1" parent="WIyWlLk6GJQsqaUBKTNV-1" source="NYca2bg5dkr7Hp-z3PVs-10" target="NYca2bg5dkr7Hp-z3PVs-14">
          <mxGeometry relative="1" as="geometry" />
        </mxCell>
        <mxCell id="NYca2bg5dkr7Hp-z3PVs-10" value="인사부 :&lt;br&gt;확인?" style="rhombus;whiteSpace=wrap;html=1;rounded=1;glass=0;strokeWidth=1;shadow=0;" vertex="1" parent="WIyWlLk6GJQsqaUBKTNV-1">
          <mxGeometry x="60" y="550" width="80" height="80" as="geometry" />
        </mxCell>
        <mxCell id="NYca2bg5dkr7Hp-z3PVs-14" value="최종 확인처리" style="whiteSpace=wrap;html=1;rounded=1;glass=0;strokeWidth=1;shadow=0;" vertex="1" parent="WIyWlLk6GJQsqaUBKTNV-1">
          <mxGeometry x="-80" y="670" width="120" height="60" as="geometry" />
        </mxCell>
        <mxCell id="NYca2bg5dkr7Hp-z3PVs-16" value="Y" style="text;html=1;align=center;verticalAlign=middle;whiteSpace=wrap;rounded=0;" vertex="1" parent="WIyWlLk6GJQsqaUBKTNV-1">
          <mxGeometry x="240" y="250" width="60" height="30" as="geometry" />
        </mxCell>
        <mxCell id="NYca2bg5dkr7Hp-z3PVs-17" value="Y" style="text;html=1;align=center;verticalAlign=middle;whiteSpace=wrap;rounded=0;" vertex="1" parent="WIyWlLk6GJQsqaUBKTNV-1">
          <mxGeometry x="100" y="470" width="60" height="30" as="geometry" />
        </mxCell>
        <mxCell id="NYca2bg5dkr7Hp-z3PVs-18" value="Y" style="text;html=1;align=center;verticalAlign=middle;whiteSpace=wrap;rounded=0;" vertex="1" parent="WIyWlLk6GJQsqaUBKTNV-1">
          <mxGeometry x="-20" y="560" width="60" height="30" as="geometry" />
        </mxCell>
        <mxCell id="NYca2bg5dkr7Hp-z3PVs-19" value="N" style="text;html=1;align=center;verticalAlign=middle;whiteSpace=wrap;rounded=0;" vertex="1" parent="WIyWlLk6GJQsqaUBKTNV-1">
          <mxGeometry x="250" y="560" width="60" height="30" as="geometry" />
        </mxCell>
        <mxCell id="NYca2bg5dkr7Hp-z3PVs-20" value="N" style="text;html=1;align=center;verticalAlign=middle;whiteSpace=wrap;rounded=0;" vertex="1" parent="WIyWlLk6GJQsqaUBKTNV-1">
          <mxGeometry x="320" y="470" width="60" height="30" as="geometry" />
        </mxCell>
        <mxCell id="NYca2bg5dkr7Hp-z3PVs-21" value="N" style="text;html=1;align=center;verticalAlign=middle;whiteSpace=wrap;rounded=0;" vertex="1" parent="WIyWlLk6GJQsqaUBKTNV-1">
          <mxGeometry x="490" y="250" width="60" height="30" as="geometry" />
        </mxCell>
      </root>
    </mxGraphModel>
  </diagram>
</mxfile>
